<?xml version="1.0" encoding="utf-8"?>
<!-- Generator: Adobe Illustrator 16.0.0, SVG Export Plug-In . SVG Version: 6.00 Build 0)  -->
<!DOCTYPE svg PUBLIC "-//W3C//DTD SVG 1.1//EN" "http://www.w3.org/Graphics/SVG/1.1/DTD/svg11.dtd">
<svg version="1.1" id="Layer_1" xmlns="http://www.w3.org/2000/svg" xmlns:xlink="http://www.w3.org/1999/xlink" x="0px" y="0px"
	 width="27.3px" height="27.3px" viewBox="0 0 27.3 27.3" enable-background="new 0 0 27.3 27.3" xml:space="preserve">
<path fill-rule="evenodd" clip-rule="evenodd" fill="#6397D0" d="M4.8,21.9c-0.1,0-0.1-0.1-0.2-0.1c-0.4-0.1-0.6-0.4-0.5-0.8
	c0.2-1.2,0.5-5.4,8.8-5.4c7.8,0,9.4,1.8,10.1,4.6c0.1,0.3,0.1,0.5,0.1,0.8c0.1,0.5-0.1,0.7-0.6,0.9c0,0-0.1,0-0.1,0.1H4.8z"/>
<path fill-rule="evenodd" clip-rule="evenodd" fill="#6397D0" d="M8.2,9.3c0-3,2.5-5.4,5.5-5.4c2.9,0,5.4,2.5,5.4,5.5
	c0,3-2.5,5.4-5.5,5.4C10.7,14.7,8.2,12.3,8.2,9.3"/>
<path fill="none" stroke="#6397D0" stroke-miterlimit="10" d="M13.7,0.5c7.3,0,13.2,5.9,13.2,13.2"/>
<path fill="none" stroke="#6397D0" stroke-miterlimit="10" d="M0.5,13.7c0-7.3,5.9-13.2,13.2-13.2"/>
<path fill="none" stroke="#6397D0" stroke-miterlimit="10" d="M13.7,26.8c-7.3,0-13.2-5.9-13.2-13.2"/>
<path fill="none" stroke="#6397D0" stroke-miterlimit="10" d="M26.8,13.7c0,7.3-5.9,13.2-13.2,13.2"/>
</svg>
