<?xml version="1.0" encoding="utf-8"?>
<!-- Generator: Adobe Illustrator 22.1.0, SVG Export Plug-In . SVG Version: 6.00 Build 0)  -->
<svg version="1.1" id="Layer_1" xmlns="http://www.w3.org/2000/svg" xmlns:xlink="http://www.w3.org/1999/xlink" x="0px" y="0px"
	 width="60px" height="60px" viewBox="0 0 60 60" style="enable-background:new 0 0 60 60;" xml:space="preserve">
<style type="text/css">
	.st0{fill:#FFFFFF;}
</style>
<path class="st0" d="M2.3,10C1.1,10,0,11.1,0,12.5C0,13.8,1,15,2.3,15c0,0,0,0,0.1,0h55.3c1.3,0,2.3-1.1,2.3-2.5
	c0-1.4-1-2.5-2.3-2.5c0,0,0,0-0.1,0H2.3z M2.3,27.5C1.1,27.5,0,28.6,0,30c0,1.4,1,2.5,2.3,2.5c0,0,0,0,0.1,0h55.3
	c1.3,0,2.3-1.1,2.3-2.5c0-1.4-1-2.5-2.3-2.5c0,0,0,0-0.1,0H2.3z M2.3,45C1.1,45,0,46.1,0,47.5C0,48.8,1,50,2.3,50c0,0,0,0,0.1,0
	h55.3c1.3,0,2.3-1.1,2.3-2.5S59,45,57.7,45c0,0,0,0-0.1,0H2.3z"/>
</svg>
