<?xml version="1.0" encoding="utf-8"?>
<!-- Generator: Adobe Illustrator 22.1.0, SVG Export Plug-In . SVG Version: 6.00 Build 0)  -->
<svg version="1.1" id="Layer_1" xmlns="http://www.w3.org/2000/svg" xmlns:xlink="http://www.w3.org/1999/xlink" x="0px" y="0px"
	 width="60px" height="60px" viewBox="0 0 60 60" style="enable-background:new 0 0 60 60;" xml:space="preserve">
<style type="text/css">
	.st0{fill:#FFFFFF;}
</style>
<path class="st0" d="M58.9,55.3L33.6,30L58.9,4.7c1.3-1.2,1.5-3,0.5-4.1c-1-1-2.8-0.8-4,0.4c0,0,0,0-0.1,0.1L30,26.4L4.7,1.1
	c-1.2-1.3-3-1.5-4.1-0.5c-1,1-0.8,2.8,0.4,4c0,0,0,0,0.1,0.1L26.4,30L1.1,55.3c-1.3,1.2-1.5,3-0.5,4.1c1,1,2.8,0.8,4-0.4
	c0,0,0,0,0.1-0.1L30,33.6l25.3,25.3c1.2,1.3,3,1.5,4.1,0.5C60.4,58.4,60.2,56.6,58.9,55.3C58.9,55.3,58.9,55.3,58.9,55.3z"/>
</svg>
