<?xml version="1.0" encoding="utf-8"?>
<!-- Generator: Adobe Illustrator 16.0.0, SVG Export Plug-In . SVG Version: 6.00 Build 0)  -->
<!DOCTYPE svg PUBLIC "-//W3C//DTD SVG 1.1//EN" "http://www.w3.org/Graphics/SVG/1.1/DTD/svg11.dtd">
<svg version="1.1" id="Layer_1" xmlns="http://www.w3.org/2000/svg" xmlns:xlink="http://www.w3.org/1999/xlink" x="0px" y="0px"
	 width="141.73px" height="141.73px" viewBox="0 0 141.73 141.73" enable-background="new 0 0 141.73 141.73" xml:space="preserve">
<text transform="matrix(1 0 0 1 0.6655 135.5479)" display="none" font-family="'Gotham-Light'" font-size="245.4142">x</text>
<text transform="matrix(1 0 0 1 15.1968 133.499)" display="none" fill="#FFFFFF" font-family="'Avenir-Roman'" font-size="176.7062">X</text>
<text transform="matrix(1 0 0 1 8.3647 82.8652)" display="none" fill="#FFFFFF" font-family="'Gotham-Light'" font-size="36">M      N</text>
<text transform="matrix(1 0 0 1 70.8652 9.2656)" display="none" writing-mode="tb"><tspan x="0" y="0" display="inline" fill="#FFFFFF" font-family="'Gotham-Light'" font-size="32" glyph-orientation-vertical="0">O</tspan><tspan x="0" y="32" display="inline" fill="#FFFFFF" font-family="'Gotham-Light'" font-size="32" glyph-orientation-vertical="1">  </tspan><tspan x="0" y="51.199" display="inline" fill="#FFFFFF" font-family="'Gotham-Light'" font-size="32" glyph-orientation-vertical="0" letter-spacing="-11">	</tspan><tspan x="0" y="72" display="inline" fill="#FFFFFF" font-family="'Gotham-Light'" font-size="32" glyph-orientation-vertical="1">  </tspan><tspan x="0" y="91.199" display="inline" fill="#FFFFFF" font-family="'Gotham-Light'" font-size="32" glyph-orientation-vertical="0">O</tspan></text>
<g display="none">
	<polygon display="inline" fill="#FFFFFF" points="129.35,7.779 117.185,7.779 70.608,63.652 24.031,7.779 11.865,7.779 
		64.525,70.948 11.866,134.117 24.029,134.117 70.608,78.244 117.187,134.117 129.348,134.117 76.69,70.948 	"/>
</g>
<text transform="matrix(1 0 0 1 40.1177 77.7158)" display="none" fill="#FFFFFF" font-family="'Gotham-Light'" font-size="20.9234">O    O</text>
<text transform="matrix(1 0 0 1 5.1255 82.8652)" display="none" fill="#FFFFFF" font-family="'Gotham-Light'" font-size="36">O  X  O</text>
<text transform="matrix(1 0 0 1 70.8652 9.2656)" display="none" writing-mode="tb"><tspan x="0" y="0" display="inline" fill="#FFFFFF" font-family="'Gotham-Light'" font-size="32" glyph-orientation-vertical="0">M</tspan><tspan x="0" y="32" display="inline" fill="#FFFFFF" font-family="'Gotham-Light'" font-size="32" glyph-orientation-vertical="1">  </tspan><tspan x="0" y="51.199" display="inline" fill="#FFFFFF" font-family="'Gotham-Light'" font-size="32" glyph-orientation-vertical="0" letter-spacing="-11">	</tspan><tspan x="0" y="72" display="inline" fill="#FFFFFF" font-family="'Gotham-Light'" font-size="32" glyph-orientation-vertical="1">  </tspan><tspan x="0" y="91.199" display="inline" fill="#FFFFFF" font-family="'Gotham-Light'" font-size="32" glyph-orientation-vertical="0">N</tspan></text>
<text transform="matrix(1 0 0 1 -11.5654 117.3721)" display="none" fill="#FFFFFF" font-family="'Gotham-Medium'" font-size="134.4434" letter-spacing="-22">JM</text>
<text transform="matrix(1 0 0 1 -24.1196 117.3721)" display="none" fill="#FFFFFF" font-family="'Gotham-Bold'" font-size="134.4434">JM</text>
<g display="none">
	<path display="inline" fill="#FFFFFF" d="M81.079,99.76c-1.571,4.214-3.774,7.73-6.61,10.554
		c-2.836,2.823-6.262,4.931-10.275,6.319c-4.014,1.389-8.422,2.084-13.22,2.084c-7.156,0-13.155-1.389-17.998-4.168
		c-4.842-2.777-8.835-6.094-11.976-9.949l12.697-14.52c2.618,2.958,5.255,5.267,7.918,6.924c2.661,1.659,5.606,2.487,8.835,2.487
		c3.839,0,6.849-1.231,9.032-3.697c2.18-2.464,3.271-6.431,3.271-11.898V23.262h20.681v61.575
		C83.435,90.573,82.649,95.548,81.079,99.76z"/>
	<path display="inline" fill="#FFFFFF" d="M136.674,117.372v-61.44L110.188,96.13h-0.537L83.435,56.335v61.037H63v-94.11h22.318
		l24.737,39.795l24.737-39.795h22.317v94.11H136.674z"/>
</g>
<g display="none">
	<path display="inline" fill="#FFFFFF" d="M81.079,99.76c-1.571,4.214-3.774,7.73-6.61,10.554
		c-2.836,2.823-6.262,4.931-10.275,6.319c-4.014,1.389-8.422,2.084-13.22,2.084c-7.156,0-13.155-1.389-17.998-4.168
		c-4.842-2.777-8.835-6.094-11.976-9.949l12.697-14.52c2.618,2.958,5.255,5.267,7.918,6.924c2.661,1.659,5.606,2.487,8.835,2.487
		c3.839,0,6.849-1.231,9.032-3.697c2.18-2.464,3.271-6.431,3.271-11.898V23.262h20.681v61.575
		C83.435,90.573,82.649,95.548,81.079,99.76z"/>
	<path display="inline" fill="#FFFFFF" d="M136.674,117.372v-61.44L110.188,96.13h-0.537L83.435,56.335v61.037H63v-94.11h22.318
		l24.737,39.795l24.737-39.795h22.317v94.11H136.674z"/>
</g>
<path display="none" fill="#FFFFFF" d="M119.863,20.262l-28.23,45.417L63.401,20.262h-25.75v69.197
	c0,6.239-1.246,10.768-3.733,13.579c-2.492,2.814-5.927,4.22-10.308,4.22c-3.686,0-7.046-0.945-10.083-2.839
	c-3.04-1.892-6.049-4.526-9.038-7.901L-10,113.088c3.584,4.399,8.142,8.185,13.668,11.354c5.527,3.172,12.373,4.757,20.539,4.757
	c4.939,0,9.513-0.651,13.725-1.941c0.457-0.14,0.914-0.282,1.363-0.438c4.58-1.584,8.489-3.989,11.727-7.21
	c3.236-3.223,5.75-7.236,7.543-12.046c1.792-4.807,2.688-10.483,2.688-17.029V58.006l29.919,45.416h0.613l30.226-45.876v70.117
	h23.322V20.262H119.863z"/>
<g>
	<path fill="#FFFFFF" d="M92.222,103.422h-0.616L61.559,58.006v32.528c0,6.546-0.9,12.223-2.7,17.029
		c-1.801,4.81-4.326,8.823-7.576,12.046c-3.251,3.221-7.177,5.626-11.777,7.21c-0.451,0.155-0.91,0.298-1.369,0.438
		c-2.521,0.769-5.173,1.306-7.953,1.618c11.516,8.091,25.538,12.855,40.681,12.855c20.404,0,38.781-8.636,51.712-22.437V57.546
		L92.222,103.422z"/>
	<path fill="#FFFFFF" d="M13.628,104.419c3.049,1.894,6.424,2.839,10.125,2.839c4.4,0,7.85-1.405,10.352-4.22
		c2.498-2.812,3.749-7.34,3.749-13.579V20.262h25.861l28.352,45.417l28.352-45.417h0.036C107.674,7.734,90.177,0,70.865,0
		C31.728,0,0,31.728,0,70.865c0,9.237,1.786,18.052,5.001,26.144C7.854,100.145,10.728,102.622,13.628,104.419z"/>
	<path display="none" fill="#A7A7A7" d="M120.456,20.262h-0.036L92.068,65.678L63.716,20.262H37.855v69.197
		c0,6.239-1.251,10.768-3.749,13.579c-2.502,2.814-5.952,4.22-10.352,4.22c-3.701,0-7.077-0.945-10.125-2.839
		c-2.9-1.797-5.774-4.274-8.627-7.41c5.136,12.928,13.96,23.98,25.184,31.866c2.779-0.312,5.432-0.85,7.953-1.618
		c0.459-0.14,0.918-0.282,1.369-0.438c4.6-1.584,8.525-3.989,11.777-7.21c3.25-3.223,5.774-7.236,7.576-12.046
		c1.8-4.807,2.7-10.483,2.7-17.029V58.006l30.047,45.416h0.616l30.355-45.876v61.748c11.871-12.672,19.153-29.695,19.153-48.429
		C141.73,51.039,133.579,33.124,120.456,20.262z"/>
</g>
<g display="none">
	<path display="inline" fill="#ED1C24" d="M96.491,93.807h-0.527L67.079,50.546v65.947h-16.09V97.611
		c-0.189,0.613-0.389,1.216-0.608,1.801c-1.54,4.089-3.672,7.497-6.397,10.222c-2.727,2.728-5.98,4.771-9.76,6.134
		c-3.782,1.362-7.959,2.043-12.53,2.043c-1.4,0-2.742-0.071-4.05-0.182c12.987,14.769,32.009,24.102,53.222,24.102
		c22.068,0,41.778-10.09,54.775-25.906V50.282L96.491,93.807z"/>
	<path display="inline" fill="#2E3192" d="M11.208,99.938c2.856,1.893,6.265,2.837,10.222,2.837c4.396,0,7.934-1.473,10.618-4.419
		c2.681-2.945,4.021-7.494,4.021-13.65V24.167h14.92h1.7h15.578L96.36,67.824l27.961-43.452C111.329,9.447,92.206,0,70.865,0
		C31.728,0,0,31.728,0,70.865c0,7.625,1.218,14.963,3.447,21.846C5.977,95.775,8.564,98.191,11.208,99.938z"/>
</g>
</svg>
